<svg xmlns="http://www.w3.org/2000/svg" viewBox="0 0 600 600"><defs><style>.cls-1{fill:#fff;}.cls-2{fill:#e5177e;}</style></defs><title>Kofe_block</title><g id="Layer_2" data-name="Layer 2"><g id="Layer_1-2" data-name="Layer 1"><rect class="cls-1" width="600" height="600"/><rect class="cls-2" x="60" y="60" width="20" height="20"/><path d="M206,60a60,60,0,1,0,60,60A60,60,0,0,0,206,60Zm0,100a40,40,0,1,1,40-40A40,40,0,0,1,206,160Z"/><path d="M353,60H332.5A60.18,60.18,0,0,0,273,120h0a60.18,60.18,0,0,0,59.5,60H353a60.18,60.18,0,0,0,60-60h0A60.18,60.18,0,0,0,353,60Zm-48.23,88.23A40,40,0,0,1,332.5,80v80A39.7,39.7,0,0,1,304.77,148.23Zm76.46,0A39.69,39.69,0,0,1,353,160h-.5V80h.5a39.92,39.92,0,0,1,28.23,68.23Z"/><path d="M529,130h10.15a60,60,0,1,0-5.95,17.73l-19.36-6.45A40,40,0,0,1,441.27,130H529Zm-87.73-20a40,40,0,0,1,77.46,0Z"/><polygon points="160 60.31 159.67 60 129.69 60 80 105.86 80 134.14 129.69 180 159.67 180 160 179.69 95.32 120 160 60.31"/><path d="M88.54,404.17v32.12h-6V422.52H66v13.77H60V404.17h6v13.26H82.58V404.17Z"/><path d="M118.83,428.86H102.77l-3.17,7.43H93.45l14.46-32.12h5.87l14.5,32.12H122Zm-2-4.68-6.06-14.05-6,14.05Z"/><path d="M174.49,404.17v32.12H133.24V404.17h5.87v27.07H151V404.17h5.88v27.07h11.79V404.17Z"/><path d="M211.11,404.17l-14,25.93a14,14,0,0,1-4.38,5.16,9.74,9.74,0,0,1-5.53,1.72,11.91,11.91,0,0,1-4.73-1l1.47-4.68a10.77,10.77,0,0,0,3.12.6,5.53,5.53,0,0,0,4.77-3l.51-.78-12.8-23.95H186l9.5,18.86,9.78-18.86Z"/><path d="M80.49,457.17a10.57,10.57,0,0,1,4.75,3.95,12.06,12.06,0,0,1,0,12.18,10.55,10.55,0,0,1-4.75,4,17.76,17.76,0,0,1-7.27,1.38H66v9.27H60V455.79H73.22A17.76,17.76,0,0,1,80.49,457.17ZM78.86,472a6.55,6.55,0,0,0,0-9.46,9.18,9.18,0,0,0-5.92-1.65H66V473.6h7A9.18,9.18,0,0,0,78.86,472Z"/><path d="M116.63,482.91v5H92.54V455.79H116v5H98.5v8.36H114v4.91H98.5v8.85Z"/><path d="M135.12,474.38h-6v13.54h-5.87V455.79h5.87v13.45h6.15l9.23-13.45h6.33l-11,15.56,11.38,16.57h-6.74Z"/><path d="M183.53,455.79v32.13h-5.87V460.84H165l-.27,8a66.8,66.8,0,0,1-1.1,10.95,13.8,13.8,0,0,1-2.8,6.38,6.75,6.75,0,0,1-5.32,2.17,16.2,16.2,0,0,1-3.26-.45l.41-5.19a4.81,4.81,0,0,0,1.38.18c1.86,0,3.19-1.1,4-3.32s1.26-5.72,1.44-10.49l.46-13.31Z"/><path d="M213.87,480.48H197.81l-3.17,7.44h-6.15l14.45-32.13h5.88l14.5,32.13h-6.24Zm-2-4.68-6-14-6,14Z"/><path d="M257.74,487.92l-.05-21.3-10.55,17.62h-2.67L233.92,466.9v21h-5.64V455.79h4.91L245.9,477l12.57-21.25h4.86l.1,32.13Z"/><path d="M300,455.79l-13.95,25.93a13.92,13.92,0,0,1-4.38,5.16,9.66,9.66,0,0,1-5.53,1.72,11.74,11.74,0,0,1-4.73-1l1.47-4.68a10.65,10.65,0,0,0,3.12.6,5.51,5.51,0,0,0,4.77-3l.51-.78-12.81-24h6.38l9.5,18.86,9.78-18.86Z"/><path d="M85.84,525.66a8.49,8.49,0,0,1-1.52,11.54q-3.12,2.34-9,2.34H60.05V507.42H74.41q5.41,0,8.44,2.16a7,7,0,0,1,3,6.1,7.3,7.3,0,0,1-4.73,7.16A8.74,8.74,0,0,1,85.84,525.66Zm-19.92-4.52h8A7.18,7.18,0,0,0,78.31,520a4,4,0,0,0,1.51-3.39,4.05,4.05,0,0,0-1.51-3.42A7.11,7.11,0,0,0,73.9,512h-8Zm15.51,9q0-4.68-6.33-4.68H65.92V535H75.1Q81.43,535,81.43,530.18Z"/><path d="M94.28,507.42h5.87v22.81l17.26-22.81H123v32.12h-5.87V516.78L99.83,539.54H94.28Z"/><path d="M163.48,534.49v5h-35.7l0-5h1.38c2-.09,3.43-1.58,4.25-4.47a56.07,56.07,0,0,0,1.49-12.41l.36-10.19h23.55v27.07Zm-24.32-5.94q-.78,4.16-2.48,5.94H153v-22H140.4l-.23,5.69A73.11,73.11,0,0,1,139.16,528.55Z"/><path d="M197.62,507.42v32.12h-6V525.77H175v13.77h-6V507.42h6v13.26h16.62V507.42Z"/><path d="M212.63,537.87a15.91,15.91,0,0,1-6.2-5.92,17.07,17.07,0,0,1,0-16.94,15.91,15.91,0,0,1,6.2-5.92,19.47,19.47,0,0,1,17.71,0,15.84,15.84,0,0,1,6.19,5.9,17.14,17.14,0,0,1,0,17,15.84,15.84,0,0,1-6.19,5.9,19.47,19.47,0,0,1-17.71,0Zm14.64-4.55a10.47,10.47,0,0,0,4-4,12.22,12.22,0,0,0,0-11.62,10.47,10.47,0,0,0-4-4,12.27,12.27,0,0,0-11.57,0,10.5,10.5,0,0,0-4,4,12.22,12.22,0,0,0,0,11.62,10.5,10.5,0,0,0,4,4,12.27,12.27,0,0,0,11.57,0Z"/></g></g></svg>