<?xml version="1.0" encoding="UTF-8"?>
<svg width="96px" height="24px" viewBox="0 0 96 24" version="1.1" xmlns="http://www.w3.org/2000/svg" xmlns:xlink="http://www.w3.org/1999/xlink">
    <!-- Generator: Sketch 53.2 (72643) - https://sketchapp.com -->
    <title>Group</title>
    <desc>Created with Sketch.</desc>
    <g id="Symbols" stroke="none" stroke-width="1" fill="none" fill-rule="evenodd">
        <g id="Header" transform="translate(-360.000000, -28.000000)">
            <g id="Group" transform="translate(360.000000, 28.000000)">
                <polygon id="Fill-2" fill="#E6177E" points="1.0658141e-14 4 4 4 4 1.0658141e-14 1.0658141e-14 1.0658141e-14"></polygon>
                <path d="M29.2,20 C33.6112,20 37.2,16.4112 37.2,12 C37.2,7.5888 33.6112,4 29.2,4 C24.7888,4 21.2,7.5888 21.2,12 C21.2,16.4112 24.7888,20 29.2,20 Z M29.2,3.49145626e-15 C35.8274,3.49145626e-15 41.2,5.3726 41.2,12 C41.2,18.6274 35.8274,24 29.2,24 C22.5726,24 17.2,18.6274 17.2,12 C17.2,5.3726 22.5726,3.49145626e-15 29.2,3.49145626e-15 Z M64.24658,17.64658 C65.76418,16.12898 66.59998,14.12358 66.59998,11.99998 C66.59998,9.87638 65.76418,7.87118 64.24658,6.35338 C62.72898,4.83578 60.72358,3.99998 58.59998,3.99998 L58.49998,3.99998 L58.49998,19.99998 L58.59998,19.99998 C60.72358,19.99998 62.72898,19.16418 64.24658,17.64658 Z M48.95338,17.64658 C50.44718,19.14038 52.41358,19.97158 54.49998,19.99758 L54.49998,4.00238 C52.41358,4.02838 50.44718,4.85978 48.95338,6.35338 C47.43578,7.87118 46.59998,9.87638 46.59998,11.99998 C46.59998,14.12358 47.43578,16.12898 48.95338,17.64658 Z M58.59998,-2e-05 C65.19998,-2e-05 70.59998,5.39998 70.59998,11.99998 C70.59998,18.59998 65.19998,23.99998 58.59998,23.99998 L58.49998,23.99998 L54.59998,23.99998 L54.49998,23.99998 L54.49998,23.99738 C47.94578,23.94298 42.59998,18.56658 42.59998,11.99998 C42.59998,5.43358 47.94578,0.05698 54.49998,0.00258 L54.49998,-2e-05 L54.59998,-2e-05 L58.49998,-2e-05 L58.59998,-2e-05 Z M76.25312,10 L91.74692,10 C90.85652,6.5534 87.72092,4 83.99992,4 C80.27912,4 77.14352,6.5534 76.25312,10 Z M93.79992,14 L91.74692,14 L76.25312,14 C77.14352,17.4466 80.27912,20 83.99992,20 C86.84772,20 89.35092,18.5032 90.76892,16.2564 L94.64032,17.5468 C92.63732,21.3812 88.62572,24 83.99992,24 C77.37252,24 71.99992,18.6274 71.99992,12 C71.99992,5.3726 77.37252,3.49145626e-15 83.99992,3.49145626e-15 C90.62752,3.49145626e-15 95.99992,5.3726 95.99992,12 C95.99992,12.6818 95.94012,13.3494 95.83092,14 L93.79992,14 Z M20,0.06152 L7.0646,11.99992 L20,23.93852 L19.9334,23.99992 L13.9374,23.99992 L4,14.82852 L4,9.17152 L13.9374,-8e-05 L19.9334,-8e-05 L20,0.06152 Z" id="Combined-Shape" fill="#FFFFFF"></path>
            </g>
        </g>
    </g>
</svg>