<?xml version="1.0" encoding="UTF-8"?>
<svg width="56px" height="48px" viewBox="0 0 56 48" version="1.1" xmlns="http://www.w3.org/2000/svg" xmlns:xlink="http://www.w3.org/1999/xlink">
    <!-- Generator: Sketch 53.2 (72643) - https://sketchapp.com -->
    <title>Shape Copy 2</title>
    <desc>Created with Sketch.</desc>
    <g id="Page-1" stroke="none" stroke-width="1" fill="none" fill-rule="evenodd">
        <g id="iKofe_home" transform="translate(-532.000000, -3002.000000)" fill="#E6177E" fill-rule="nonzero">
            <g id="Group-8" transform="translate(360.000000, 2874.000000)">
                <path d="M226.348479,160.810041 L228,156.790959 L227.170752,156.470717 C226.630563,156.26201 226.076858,156.137377 225.524026,156.080342 C225.569805,156.041474 225.617763,156.005985 225.661798,155.966272 C226.876896,154.857676 227.574476,153.355748 227.624179,151.738483 L227.758027,147.414368 L226.865124,147.388174 C226.286568,147.374232 225.720656,147.439294 225.176108,147.568997 C225.966118,146.151566 226.182367,144.437552 225.621687,142.79198 L224.220423,138.683754 L223.372427,138.95541 C222.819594,139.132008 222.314285,139.382118 221.852574,139.682504 C221.861294,139.624201 221.875681,139.567166 221.883093,139.509286 C222.078416,137.902582 221.615833,136.318271 220.581234,135.049131 L217.814892,131.652789 L217.113824,132.188498 C216.61549,132.57 216.194326,133.011495 215.850332,133.492281 C215.477126,132.222296 214.715456,131.083704 213.613715,130.324502 L210.238734,128.000845 L209.759148,128.863978 C208.250195,131.586037 209.025817,135.179679 211.490455,136.876371 L212.155772,137.334765 C210.903616,137.414614 209.709009,137.852307 208.703622,138.620804 L208.002554,139.15609 L210.768023,142.553277 C211.353991,143.272343 212.104762,143.840583 212.948398,144.238562 L213.751051,146.592216 C214.046651,147.460841 214.55196,148.24497 215.20507,148.897284 L215.1279,151.375992 C215.099561,152.290668 215.297935,153.194782 215.680732,154.024539 L214.733331,156.327917 C214.384105,157.179221 214.251129,158.093897 214.318271,158.999701 L212.614431,160.851444 C212.161004,161.344482 211.80393,161.900048 211.539722,162.498706 L208.704494,164.001901 C205.859674,165.509744 204.628445,168.824546 205.6722,171.735455 C201.953225,172.775186 197.930803,172.774341 194.213572,171.73292 C195.255582,168.823701 194.025225,165.509744 191.180405,164.001901 L188.493849,162.576866 C188.225717,161.946943 187.859051,161.365184 187.384697,160.850599 L185.682165,158.998856 C185.748871,158.093052 185.615895,157.178376 185.266669,156.327072 L184.319268,154.023694 C184.702501,153.193937 184.899567,152.289823 184.8721,151.375147 L184.795366,148.896439 C185.447168,148.244125 185.952477,147.459996 186.248949,146.591371 L187.051602,144.236872 C187.894366,143.839738 188.645573,143.271498 189.231105,142.552432 L191.996574,139.155245 L191.295506,138.619959 C190.290119,137.850617 189.09464,137.413769 187.84292,137.33392 L188.508673,136.875526 C190.973311,135.178834 191.749369,131.585192 190.240416,128.863133 L189.76083,128 L186.385413,130.323657 C185.283672,131.082859 184.522002,132.222296 184.148796,133.491436 C183.805238,133.009383 183.383638,132.56831 182.885304,132.187653 L182.184236,131.651944 L179.41833,135.048286 C178.384167,136.317426 177.921585,137.901737 178.117343,139.508441 C178.124319,139.567166 178.138706,139.623356 178.147426,139.681659 C177.687023,139.381273 177.180405,139.132008 176.628009,138.954565 L175.779577,138.682909 L174.378749,142.791135 C173.818069,144.436707 174.033011,146.149876 174.822584,147.566462 C174.278471,147.437605 173.714304,147.373387 173.134876,147.388174 L172.241973,147.414368 L172.375821,151.738483 C172.42596,153.355748 173.123104,154.856831 174.338638,155.966272 C174.382237,156.005985 174.428887,156.039784 174.473358,156.077807 C173.917038,156.136532 173.364205,156.2637 172.829685,156.470717 L172,156.790959 L173.651957,160.810041 C174.315095,162.422659 175.624365,163.59336 177.171686,164.185259 C176.662888,164.425652 176.18243,164.731107 175.748622,165.106695 L175.081561,165.682117 L178.054561,168.911155 C179.165457,170.119035 180.695774,170.835566 182.362119,170.92809 C182.379122,170.928935 182.396126,170.928935 182.412257,170.92978 C182.010277,171.343391 181.658435,171.808967 181.375479,172.327354 L180.963906,173.081486 L185.021208,175.232771 C185.981253,175.74144 187.031983,176 188.092741,176 C188.711407,176 189.33487,175.911701 189.943944,175.734681 C191.358288,175.322759 192.556383,174.468499 193.393043,173.3016 C195.510199,173.931523 197.709321,174.266974 199.948553,174.266974 C202.185606,174.266974 204.38124,173.931523 206.496216,173.30329 C207.332877,174.468499 208.530535,175.322759 209.944879,175.733836 C210.554825,175.910856 211.176108,175.999155 211.794774,175.999155 C212.855532,175.999155 213.906699,175.740595 214.866307,175.231926 L218.923609,173.080642 L218.512036,172.326509 C218.229952,171.809812 217.878982,171.345081 217.47831,170.932315 C217.531936,170.930625 217.586435,170.930625 217.639625,170.92809 C219.306842,170.835566 220.836287,170.119035 221.947183,168.912 L224.918875,165.682962 L224.251814,165.10754 C223.812338,164.727727 223.331008,164.424807 222.825698,164.186949 C224.375198,163.594205 225.684906,162.423504 226.348479,160.810041 L226.348479,160.810041 Z M192.606521,170.954706 L190.17153,169.727815 C188.149855,168.655131 187.243437,166.325981 187.907882,164.238069 L190.324126,165.518616 C192.329669,166.582006 193.237831,168.881582 192.606521,170.954706 L192.606521,170.954706 Z M182.967706,152.558945 L182.784591,152.629922 C181.39161,153.168166 180.308617,154.140722 179.634144,155.322407 L179.570054,153.261535 C179.534303,152.106466 179.964623,151.007587 180.782536,150.165578 C181.392482,149.538191 182.162001,149.11106 183.009561,148.92052 L183.087166,151.428803 C183.09981,151.810305 183.057519,152.190117 182.967706,152.558945 Z M183.748124,158.197828 C182.659462,159.138275 181.958394,160.387558 181.734297,161.76443 L180.950391,159.856497 C180.152097,157.916454 180.912024,155.741088 182.649435,154.637985 L183.607736,156.968402 C183.754228,157.32371 183.849709,157.695073 183.89418,158.07066 L183.748124,158.197828 Z M186.608639,162.765293 C185.862228,164.222437 185.739279,165.834211 186.148236,167.306142 L184.575628,165.596353 C183.781695,164.733642 183.382766,163.623779 183.45078,162.469555 C183.501355,161.610224 183.807854,160.802014 184.329295,160.128998 L186.052319,162.002288 C186.270312,162.237612 186.451683,162.495326 186.608639,162.765293 Z M184.553393,146.049747 C184.430008,146.412238 184.256921,146.755717 184.041543,147.072579 L183.845349,147.077649 C182.387842,147.119897 181.021893,147.639974 179.937155,148.555495 L180.601165,146.606158 C180.975242,145.508969 181.768304,144.618374 182.833422,144.099565 C183.627355,143.711726 184.502382,143.563012 185.364766,143.666942 L184.553393,146.049747 Z M187.830276,141.48017 C187.585687,141.780555 187.301859,142.046297 186.988384,142.271903 L186.802653,142.212333 C185.418392,141.768303 183.950422,141.804637 182.60758,142.305702 L183.921211,140.693929 C184.659774,139.786857 185.718352,139.212703 186.903366,139.077508 C187.785806,138.976112 188.660833,139.130318 189.435583,139.509286 L187.830276,141.48017 Z M187.420448,131.736018 L189.053658,130.610946 C189.576843,132.411569 188.966896,134.439066 187.474946,135.465277 L185.841736,136.589927 C185.318551,134.789304 185.92937,132.76223 187.420448,131.736018 Z M180.820031,136.120126 L182.424465,134.151777 C183.764691,135.688348 183.853197,137.983699 182.518202,139.623356 L180.912896,141.592973 C180.351344,140.950798 179.995142,140.162445 179.890505,139.306071 C179.751425,138.159452 180.081467,137.02762 180.820031,136.120126 Z M176.075177,143.334448 L176.886986,140.952488 C178.689795,141.953773 179.582698,144.080553 178.905609,146.063689 L178.093364,148.446494 C176.291427,147.445209 175.398524,145.318429 176.075177,143.334448 Z M174.162499,151.68694 L174.084893,149.178235 C174.941173,149.320189 175.737722,149.702537 176.384292,150.293591 C177.251908,151.085324 177.750241,152.158431 177.785992,153.3135 L177.863598,155.820938 C177.007318,155.679828 176.211641,155.297481 175.564635,154.706427 C174.695712,153.915539 174.19825,152.842009 174.162499,151.68694 L174.162499,151.68694 Z M175.312634,160.169557 L174.354769,157.838717 C175.210177,157.687046 176.091308,157.783372 176.909221,158.124316 C178.004858,158.580175 178.850238,159.423874 179.291458,160.496559 L180.249323,162.82782 C178.202797,163.184819 176.110056,162.110444 175.312634,160.169557 L175.312634,160.169557 Z M179.387811,167.759466 L177.664788,165.886176 C178.414687,165.46158 179.276198,165.255409 180.165613,165.307374 C181.355859,165.373281 182.448881,165.885331 183.242378,166.747197 L184.965837,168.621332 C184.215938,169.04635 183.357915,169.251254 182.465012,169.199289 C181.273894,169.133381 180.181745,168.623022 179.387811,167.759466 Z M189.430351,174.076857 C188.235745,174.42287 186.97574,174.294858 185.878359,173.714366 L183.435521,172.418188 C184.03108,171.687715 184.834605,171.154118 185.765003,170.884152 C186.957865,170.53518 188.217869,170.665728 189.313506,171.245797 L191.785992,172.4917 C191.187381,173.244142 190.378624,173.800553 189.430351,174.076857 Z M216.107564,158.07066 C216.153343,157.694228 216.248824,157.322865 216.394444,156.968402 L217.352309,154.637985 C219.08972,155.741088 219.849647,157.916454 219.051353,159.856497 L218.264831,161.77119 C218.047709,160.436988 217.373673,159.164047 216.254056,158.197828 L216.107564,158.07066 Z M216.914578,151.427958 L216.992619,148.919675 C217.838871,149.11106 218.609698,149.538191 219.219208,150.164733 C220.037121,151.006742 220.467441,152.105621 220.432126,153.26069 L220.3676,155.320717 C219.692691,154.139032 218.61057,153.166476 217.217589,152.628232 L217.034474,152.557255 C216.944225,152.190117 216.903242,151.810305 216.914578,151.427958 L216.914578,151.427958 Z M225.840117,151.68694 C225.804366,152.842009 225.306468,153.914694 224.438417,154.706427 C223.790975,155.297481 222.995298,155.679828 222.139018,155.820938 L222.21706,153.3135 C222.252375,152.158431 222.750708,151.085324 223.61876,150.293591 C224.266202,149.702537 225.061443,149.320189 225.917723,149.178235 L225.840117,151.68694 Z M223.115194,140.952488 L223.926567,143.334448 C224.603656,145.318429 223.710753,147.445209 221.907944,148.446494 L221.095263,146.063689 C220.419482,144.080553 221.312385,141.953773 223.115194,140.952488 L223.115194,140.952488 Z M217.577279,134.151777 L219.180841,136.120126 C219.920277,137.02762 220.249883,138.158607 220.110367,139.306916 C220.006166,140.162445 219.650836,140.950798 219.087976,141.593818 L217.483541,139.624201 C216.148547,137.982854 216.237053,135.688348 217.577279,134.151777 Z M210.948522,130.610946 L212.581732,131.736018 C214.07281,132.763075 214.683629,134.789304 214.160007,136.589927 L212.527234,135.465277 C211.034848,134.439066 210.424465,132.411569 210.948522,130.610946 Z M210.567905,139.510131 C211.343963,139.131163 212.220734,138.978224 213.100121,139.078353 C214.285136,139.213548 215.34415,139.787702 216.082713,140.694774 L217.395908,142.306547 C216.053938,141.805482 214.585967,141.768303 213.200399,142.212333 L213.013796,142.271903 C212.700321,142.046297 212.416493,141.780555 212.172776,141.48017 L210.567905,139.510131 Z M217.168322,144.099565 C218.23344,144.619219 219.026502,145.509814 219.400579,146.606158 L220.065024,148.555495 C218.980287,147.639974 217.613902,147.119052 216.156831,147.077649 L215.960201,147.072579 C215.745259,146.755717 215.572608,146.412238 215.449659,146.049747 L214.636978,143.666942 C215.500234,143.563012 216.373517,143.711726 217.168322,144.099565 L217.168322,144.099565 Z M215.672885,160.128998 C216.194326,160.802014 216.500389,161.610224 216.5514,162.469555 C216.620286,163.623779 216.220049,164.733642 215.426116,165.596353 L213.700477,167.473023 C214.153032,165.998979 214.054934,164.368617 213.335991,162.889081 C213.50559,162.574331 213.700477,162.272255 213.949425,162.001444 L215.672885,160.128998 Z M209.563389,165.519461 L211.979633,164.238914 C212.64495,166.326826 211.73766,168.65682 209.714241,169.729505 L207.28143,170.955974 C206.65012,168.881582 207.558282,166.582851 209.563389,165.519461 Z M214.009156,173.714366 C212.912647,174.294858 211.653078,174.423715 210.458036,174.076857 C209.509763,173.800553 208.700134,173.244142 208.101959,172.4917 L210.576189,171.243685 C211.671826,170.664038 212.931394,170.53687 214.123385,170.882884 C215.05291,171.154118 215.856871,171.687715 216.451559,172.417343 L214.009156,173.714366 Z M220.613933,167.759466 C219.820435,168.622177 218.728286,169.133381 217.537168,169.199289 C216.646009,169.250409 215.786242,169.045505 215.036343,168.621332 L216.759366,166.747197 C217.5533,165.885331 218.645449,165.373281 219.836567,165.307374 C220.72947,165.256254 221.587493,165.46158 222.337392,165.886176 L220.613933,167.759466 Z M219.752421,162.82782 L220.710722,160.496559 C221.50858,158.556093 223.6035,157.480451 225.647411,157.839562 L224.68911,160.169557 C223.891252,162.110444 221.798075,163.183974 219.752421,162.82782 Z" id="Shape-Copy-2"></path>
            </g>
        </g>
    </g>
</svg>