<?xml version="1.0" encoding="UTF-8"?>
<svg width="9px" height="16px" viewBox="0 0 9 16" version="1.1" xmlns="http://www.w3.org/2000/svg" xmlns:xlink="http://www.w3.org/1999/xlink">
    <!-- Generator: Sketch 53.2 (72643) - https://sketchapp.com -->
    <title>Facebook</title>
    <desc>Created with Sketch.</desc>
    <g id="Page-1" stroke="none" stroke-width="1" fill="none" fill-rule="evenodd">
        <g id="iKofe_start_m" transform="translate(-136.000000, -619.000000)" fill="#000000">
            <g id="Group-2" transform="translate(0.000000, 587.000000)">
                <g id="Facebook" transform="translate(132.000000, 32.000000)">
                    <path d="M9.65215133,3.86402018 C9.65215133,3.65706222 9.66171896,3.49675991 9.68116174,3.38352132 C9.70053618,3.27011271 9.7446156,3.1585744 9.81302412,3.04846433 C9.88133014,2.93842227 9.99193872,2.8624538 10.144679,2.82035489 C10.2976244,2.77818797 10.5008681,2.75717252 10.7546152,2.75717252 L12.1398365,2.75717252 L12.1398365,0 L9.92530704,0 C8.64392862,0 7.72362555,0.302547656 7.16426115,0.907642967 C6.6049651,1.5128743 6.32535124,2.40436462 6.32535124,3.58245397 L6.32535124,5.24260644 L4.66666667,5.24260644 L4.66666667,7.999983 L6.32524873,7.999983 L6.32524873,16 L9.65211716,16 L9.65211716,8.000017 L11.8665099,8.000017 L12.1592109,5.24264045 L9.65215133,5.24264045 L9.65215133,3.86402018 Z" id="facebook"></path>
                </g>
            </g>
        </g>
    </g>
</svg>