<?xml version="1.0" encoding="UTF-8"?>
<svg width="16px" height="12px" viewBox="0 0 16 12" version="1.1" xmlns="http://www.w3.org/2000/svg" xmlns:xlink="http://www.w3.org/1999/xlink">
    <!-- Generator: Sketch 53.2 (72643) - https://sketchapp.com -->
    <title>YouTube</title>
    <desc>Created with Sketch.</desc>
    <g id="Page-1" stroke="none" stroke-width="1" fill="none" fill-rule="evenodd">
        <g id="iKofe_start_m" transform="translate(-226.000000, -621.000000)" fill="#000000">
            <g id="Group-2" transform="translate(0.000000, 587.000000)">
                <g id="YouTube" transform="translate(226.000000, 32.000000)">
                    <path d="M15.9910247,6.34304769 C15.9852079,6.0240068 15.9597518,5.62061892 15.9152506,5.13325657 C15.8704992,4.64561482 15.8064836,4.20981682 15.7232353,3.82583154 C15.6279782,3.39453495 15.4211084,3.03110091 15.1027196,2.73565359 C14.7843307,2.44014418 14.4137475,2.26884247 13.9910012,2.22150012 C12.6694734,2.07388511 10.6724834,2 7.99996873,2 C5.32742277,2 3.3304015,2.07388511 2.00896749,2.22150012 C1.58628373,2.26881143 1.21717035,2.44014418 0.901783725,2.73565359 C0.586272003,3.03100778 0.380903238,3.39444182 0.285646156,3.82583154 C0.196456005,4.209941 0.129407028,4.64570795 0.0847806796,5.13325657 C0.0402168772,5.62061892 0.0148858737,6.02385158 0.00897530618,6.34304769 C0.00293964732,6.66211962 0,7.10524404 0,7.67254512 C0,8.2397841 0.00293964732,8.6830327 0.00900657902,9.00204254 C0.0149171465,9.32130074 0.04024815,9.72447131 0.0848119525,10.2118026 C0.129438301,10.6994133 0.193453812,11.1352113 0.276795941,11.5192587 C0.372053023,11.9506795 0.578860339,12.3140514 0.897311708,12.6093746 C1.21582562,12.9048219 1.58644009,13.0761546 2.00899876,13.1234659 C3.33043278,13.2712362 5.32732895,13.3450902 8,13.3450902 C10.6727649,13.3450902 12.6695047,13.2712362 13.9910325,13.1234659 C14.4137788,13.0761857 14.7827358,12.9048219 15.0982475,12.6093746 C15.4137593,12.3140204 15.6190029,11.9504621 15.71426,11.5192587 C15.8035127,11.1352113 15.8704992,10.6994133 15.9152506,10.2118026 C15.9597518,9.72450236 15.9850203,9.32111447 15.9910247,9.00204254 C15.9969978,8.6830327 16,8.2397841 16,7.67254512 C16,7.10524404 15.9970291,6.66211962 15.9910247,6.34304769 L15.9910247,6.34304769 Z M10.8101556,8.09943144 L6.7727283,10.604327 C6.69909304,10.6565038 6.60963145,10.6825784 6.50453686,10.6825784 C6.42573664,10.6825784 6.34425727,10.661631 6.26015398,10.6199005 C6.08669958,10.5260756 6,10.379882 6,10.1816213 L6,5.17180271 C6,4.97359684 6.0867272,4.82740322 6.26015398,4.73349602 C6.43893906,4.63942432 6.60974193,4.64468861 6.7727283,4.74915179 L10.8101833,7.25407477 C10.9678389,7.34263543 11.0466668,7.4836196 11.0466668,7.67672569 C11.0466668,7.86974953 10.9678113,8.01078854 10.8101556,8.09943144 L10.8101556,8.09943144 Z"></path>
                </g>
            </g>
        </g>
    </g>
</svg>