<?xml version="1.0" encoding="UTF-8"?>
<svg width="16px" height="10px" viewBox="0 0 16 10" version="1.1" xmlns="http://www.w3.org/2000/svg" xmlns:xlink="http://www.w3.org/1999/xlink">
    <!-- Generator: Sketch 53.2 (72643) - https://sketchapp.com -->
    <title>VK</title>
    <desc>Created with Sketch.</desc>
    <g id="Page-1" stroke="none" stroke-width="1" fill="none" fill-rule="evenodd">
        <g id="iKofe_start_m" transform="translate(-39.000000, -622.000000)" fill="#000000">
            <g id="Group-2" transform="translate(0.000000, 587.000000)">
                <g id="VK" transform="translate(39.000000, 32.000000)">
                    <path d="M7.82817097,12.422867 L8.78455126,12.422867 C8.78455126,12.422867 9.07344197,12.3911542 9.22092828,12.2321557 C9.35668519,12.0861899 9.35234097,11.8120695 9.35234097,11.8120695 C9.35234097,11.8120695 9.33366082,10.5287866 9.92925354,10.339813 C10.516375,10.1536631 11.2703146,11.5800881 12.0694341,12.128546 C12.6737153,12.5436364 13.1328994,12.4526249 13.1328994,12.4526249 L15.2696046,12.422867 C15.2696046,12.422867 16.3873727,12.3540111 15.8573778,11.4751752 C15.8139355,11.4032783 15.5487208,10.8250625 14.2686961,9.63691799 C12.9289383,8.39338467 13.1083546,8.59452211 14.7222328,6.443481 C15.7051128,5.1334811 16.0980476,4.33370998 15.9753234,3.99116814 C15.8582466,3.66491713 15.1353682,3.75114992 15.1353682,3.75114992 L12.7295385,3.76613749 C12.7295385,3.76613749 12.5512082,3.74180985 12.4189267,3.82087467 C12.2896861,3.89841902 12.2064943,4.07913862 12.2064943,4.07913862 C12.2064943,4.07913862 11.8257233,5.09286263 11.3178838,5.95497333 C10.2465989,7.77411594 9.81825869,7.87012323 9.64318658,7.75717348 C9.23591584,7.49391368 9.33757062,6.69957284 9.33757062,6.13525851 C9.33757062,4.37237355 9.60495743,3.63733133 8.81691571,3.44705444 C8.55539359,3.38384602 8.3629446,3.3421415 7.69415175,3.33540796 C6.83573364,3.3265023 6.10916265,3.33801449 5.6977649,3.53958635 C5.42407897,3.67360558 5.21294982,3.97227078 5.34153877,3.98943046 C5.50053726,4.01071714 5.8606732,4.0865238 6.05160172,4.34652544 C6.29813627,4.68189931 6.28944783,5.43518726 6.28944783,5.43518726 C6.28944783,5.43518726 6.43106944,7.51042172 5.95863539,7.76825125 C5.63433927,7.94506105 5.18949103,7.58405627 4.234414,5.93368664 C3.74503748,5.0883012 3.37556147,4.15385923 3.37556147,4.15385923 C3.37556147,4.15385923 3.30431625,3.97922154 3.17724778,3.88582078 C3.02302793,3.77265382 2.80755455,3.73659678 2.80755455,3.73659678 L0.521408161,3.75158435 C0.521408161,3.75158435 0.178214688,3.76114163 0.0522322736,3.91036563 C-0.0598486327,4.04308159 0.0433266202,4.31763637 0.0433266202,4.31763637 C0.0433266202,4.31763637 1.83314574,8.50503116 3.85972492,10.6152366 C5.71796553,12.5499355 7.82817097,12.422867 7.82817097,12.422867 L7.82817097,12.422867 Z" id="Shape"></path>
                </g>
            </g>
        </g>
    </g>
</svg>